<svg width="192" height="176" viewBox="0 0 192 176" fill="none" xmlns="http://www.w3.org/2000/svg">
<path d="M130.94 12.6997H130.953L128.433 10.2257L128.061 9.85821H128.059L118.017 0L88.2531 0.0151548L88.2396 0.0284153H74.01L55.7935 17.913V17.8997L53.3016 20.3605L52.9072 20.7488V20.7507L42.8936 30.6374L42.909 59.9411L42.9224 59.9544V104.218L52.9072 114.161V114.173L53.3324 114.586L55.7935 117.037V116.974L66.0091 126.884V96.593L73.6329 104.104L74.6527 104.521L99.7849 104.525L99.7368 104.572H118.019L136.235 86.6496V86.6647L138.744 84.1793L139.122 83.808V83.8062L149.106 73.9195V48.6356V44.6347V30.6355L130.94 12.6997ZM146.22 31.81V41.7724L123.991 19.8755L86.4828 19.8509L93.739 12.6997H126.864L146.22 31.81ZM126.07 64.4686L108.444 81.8266H83.5445L65.9476 64.5235L65.9591 40.0807L83.6022 22.6924L108.423 22.7076L126.087 40.0504L126.07 64.4686ZM123.972 9.85821H92.5421H92.5248L82.0725 20.1767L66.0091 36.0097V25.9413L89.4499 2.85668L116.826 2.84342L123.972 9.85821ZM75.203 2.86994H85.3225L63.0805 24.7535L63.0632 61.6782L55.7935 54.5365V21.9252L75.203 2.86994ZM52.9072 24.7724V55.7167L53.4806 56.2812L79.469 81.836H69.2437L45.7933 58.759L45.7799 31.8081L52.9072 24.7724ZM45.8087 103.049V62.8357L52.9072 69.8637V110.117L45.8087 103.049ZM63.1228 120.089L55.7935 112.979V72.692L67.6255 84.2608L68.0507 84.6795H68.0527H85.8882H86.4443L86.4347 84.67H105.559L98.3379 91.7833H64.6102H63.1209V120.089H63.1228ZM68.0931 94.621H98.9344H99.5482L112.556 81.8247H112.525L126.02 68.5358V78.6062L102.602 101.676L75.2511 101.672L68.0931 94.621ZM116.824 101.723H106.702L128.946 79.8166L128.971 42.8806L136.235 50.0128V82.626L116.824 101.723ZM146.22 72.7412L139.122 79.7693V48.8326V48.8156L126.091 36.0211V36.0363L112.564 22.755H122.785L146.222 45.8092V72.7412H146.22Z" fill="#32B7BF"/>
</svg>
